<svg xmlns="http://www.w3.org/2000/svg" viewBox="0 0 1200 600" width="1200" height="600" role="img" aria-label="Niche Position Index™: median subscription price in 37 OnlyFans niches" preserveAspectRatio="xMidYMid meet"><metadata><x:xmpmeta xmlns:x="adobe:ns:meta/" x:xmptk="onlyfansstatistics.com embed-image-metadata"><rdf:RDF xmlns:rdf="http://www.w3.org/1999/02/22-rdf-syntax-ns#"><rdf:Description rdf:about="" xmlns:dc="http://purl.org/dc/elements/1.1/" xmlns:xmpRights="http://ns.adobe.com/xap/1.0/rights/" xmlns:photoshop="http://ns.adobe.com/photoshop/1.0/" xmlns:plus="http://ns.useplus.org/ldf/xmp/1.0/" xmlns:Iptc4xmpCore="http://iptc.org/std/Iptc4xmpCore/1.0/xmlns/" xmlns:Iptc4xmpExt="http://iptc.org/std/Iptc4xmpExt/2008-02-29/" xmlns:cc="http://creativecommons.org/ns#" xmlns:xmp="http://ns.adobe.com/xap/1.0/" xmp:CreatorTool="onlyfansstatistics.com chart builder" photoshop:Credit="onlyfansstatistics.com" photoshop:Source="https://onlyfansstatistics.com/embed/npi-niche-medians" xmpRights:Marked="True" xmpRights:WebStatement="https://onlyfansstatistics.com/license" Iptc4xmpExt:DigitalSourceType="http://cv.iptc.org/newscodes/digitalsourcetype/dataDrivenMedia" cc:license="https://creativecommons.org/licenses/by-sa/4.0/" cc:attributionName="onlyfansstatistics.com" cc:attributionURL="https://onlyfansstatistics.com/embed/npi-niche-medians"><dc:title><rdf:Alt><rdf:li xml:lang="x-default">Niche Position Index™: median subscription price in 37 OnlyFans niches</rdf:li></rdf:Alt></dc:title><dc:description><rdf:Alt><rdf:li xml:lang="x-default">Median subscription price and average likes for all 37 curated niches — the NPI listing-side benchmark</rdf:li></rdf:Alt></dc:description><dc:creator><rdf:Seq><rdf:li>onlyfansstatistics.com</rdf:li></rdf:Seq></dc:creator><dc:rights><rdf:Alt><rdf:li xml:lang="x-default">© 2026 onlyfansstatistics.com · CC BY-SA 4.0</rdf:li></rdf:Alt></dc:rights><dc:subject><rdf:Bag><rdf:li>OnlyFans</rdf:li><rdf:li>OnlyFans statistics</rdf:li><rdf:li>OnlyFans npi niche medians</rdf:li><rdf:li>Niche Position Index™: median subscription price in 37 OnlyFans niches</rdf:li><rdf:li>niche</rdf:li><rdf:li>medians</rdf:li><rdf:li>creator economy</rdf:li><rdf:li>2026</rdf:li><rdf:li>data visualization</rdf:li><rdf:li>chart</rdf:li></rdf:Bag></dc:subject><xmpRights:UsageTerms><rdf:Alt><rdf:li xml:lang="x-default">Free to reuse under CC BY-SA 4.0: credit onlyfansstatistics.com and link to the source page.</rdf:li></rdf:Alt></xmpRights:UsageTerms><plus:Licensor><rdf:Seq><rdf:li rdf:parseType="Resource"><plus:LicensorName>onlyfansstatistics.com</plus:LicensorName><plus:LicensorURL>https://onlyfansstatistics.com/license</plus:LicensorURL></rdf:li></rdf:Seq></plus:Licensor><Iptc4xmpCore:CreatorContactInfo rdf:parseType="Resource"><Iptc4xmpCore:CiUrlWork>https://onlyfansstatistics.com/</Iptc4xmpCore:CiUrlWork></Iptc4xmpCore:CreatorContactInfo></rdf:Description></rdf:RDF></x:xmpmeta></metadata>
  <title>Niche Position Index™: median subscription price in 37 OnlyFans niches</title>
  <desc>Listing-side NPI benchmark · the same price sits at a different position in every niche: $5.50 (Gamer Girl) to $10.00 (Bikini, Baddie, GILF)</desc>
  <style>
    .bg { fill: #0f1c30; }
    .grid { stroke: rgba(255,255,255,0.06); stroke-width: 1; }
    .axis { stroke: rgba(255,255,255,0.14); stroke-width: 1; }
    .ink { fill: #e8eef9; font-family: Inter, system-ui, sans-serif; }
    .ink2 { fill: #b8c5db; font-family: Inter, system-ui, sans-serif; }
    .ink3 { fill: #7c8aa3; font-family: Inter, system-ui, sans-serif; }
    .num { font-family: "JetBrains Mono", ui-monospace, monospace; font-feature-settings: "tnum"; }
    .title { font-size: 22px; font-weight: 700; font-family: Inter, system-ui, sans-serif; }
    .subtitle { font-size: 14px; font-family: Inter, system-ui, sans-serif; }
    .section { font-size: 12px; letter-spacing: 1px; font-family: "JetBrains Mono", ui-monospace, monospace; }
    .label { font-size: 12px; font-family: Inter, system-ui, sans-serif; }
    .label13 { font-size: 13px; font-family: Inter, system-ui, sans-serif; }
    .label11 { font-size: 11px; font-family: Inter, system-ui, sans-serif; }
    .legend { font-size: 13px; font-family: Inter, system-ui, sans-serif; }
    .tick { font-size: 13px; font-family: "JetBrains Mono", ui-monospace, monospace; }
    .val { font-size: 12px; font-family: "JetBrains Mono", ui-monospace, monospace; }
    .val13 { font-size: 13px; font-family: "JetBrains Mono", ui-monospace, monospace; }
    .valb { font-size: 13px; font-weight: 700; font-family: "JetBrains Mono", ui-monospace, monospace; }
    .score { font-size: 16px; font-weight: 700; font-family: "JetBrains Mono", ui-monospace, monospace; }
    .big { font-size: 14px; font-weight: 700; font-family: Inter, system-ui, sans-serif; }
    .footer { font-size: 12px; font-family: Inter, system-ui, sans-serif; }
  </style>
  <rect width="100%" height="100%" class="bg" rx="14"/>
  <text x="40" y="44" class="ink title">Niche Position Index™: median subscription price in 37 OnlyFans niches</text>
  <text x="40" y="66" class="ink2 subtitle">Listing-side NPI benchmark · the same price sits at a different position in every niche: $5.50 (Gamer Girl) to $10.00 (Bikini, Baddie, GILF)</text>
  <line x1="417.8" y1="104" x2="417.8" y2="526" stroke="#e8eef9" stroke-width="1" stroke-dasharray="4 4" opacity="0.5"/>
  <text x="417.75" y="96" text-anchor="middle" class="label ink2">$9.99 platform median</text>
  <text x="158" y="122" text-anchor="end" class="label ink2">Bikini</text>
  <rect x="168" y="111" width="250.0" height="14" rx="3" fill="#36e1ff"/>
  <text x="428" y="122" class="val ink3">$10.00 · avg 65k likes</text>
  <text x="158" y="144" text-anchor="end" class="label ink2">Baddie</text>
  <rect x="168" y="133" width="250.0" height="14" rx="3" fill="#36e1ff"/>
  <text x="428" y="144" class="val ink3">$10.00 · avg 32k likes</text>
  <text x="158" y="166" text-anchor="end" class="label ink2">GILF</text>
  <rect x="168" y="155" width="250.0" height="14" rx="3" fill="#36e1ff"/>
  <text x="428" y="166" class="val ink3">$10.00 · avg 24k likes</text>
  <text x="158" y="188" text-anchor="end" class="label ink2">Fitness</text>
  <rect x="168" y="177" width="249.8" height="14" rx="3" fill="#36e1ff"/>
  <text x="428" y="188" class="val ink3">$9.99 · avg 69k likes</text>
  <text x="158" y="210" text-anchor="end" class="label ink2">Indian</text>
  <rect x="168" y="199" width="249.8" height="14" rx="3" fill="#36e1ff"/>
  <text x="428" y="210" class="val ink3">$9.99 · avg 25k likes</text>
  <text x="158" y="232" text-anchor="end" class="label ink2">Tattooed</text>
  <rect x="168" y="221" width="249.5" height="14" rx="3" fill="#00b8d4"/>
  <text x="428" y="232" class="val ink3">$9.98 · avg 39k likes</text>
  <text x="158" y="254" text-anchor="end" class="label ink2">Couples</text>
  <rect x="168" y="243" width="243.8" height="14" rx="3" fill="#00b8d4"/>
  <text x="428" y="254" class="val ink3">$9.75 · avg 60k likes</text>
  <text x="158" y="276" text-anchor="end" class="label ink2">Lesbian</text>
  <rect x="168" y="265" width="243.8" height="14" rx="3" fill="#00b8d4"/>
  <text x="428" y="276" class="val ink3">$9.75 · avg 55k likes</text>
  <text x="158" y="298" text-anchor="end" class="label ink2">Yoga</text>
  <rect x="168" y="287" width="227.3" height="14" rx="3" fill="#00b8d4"/>
  <text x="428" y="298" class="val ink3">$9.09 · avg 55k likes</text>
  <text x="158" y="320" text-anchor="end" class="label ink2">Black</text>
  <rect x="168" y="309" width="225.0" height="14" rx="3" fill="#00b8d4"/>
  <text x="428" y="320" class="val ink3">$9.00 · avg 51k likes</text>
  <text x="158" y="342" text-anchor="end" class="label ink2">Cougar</text>
  <rect x="168" y="331" width="225.0" height="14" rx="3" fill="#00b8d4"/>
  <text x="428" y="342" class="val ink3">$9.00 · avg 17k likes</text>
  <text x="158" y="364" text-anchor="end" class="label ink2">Nurse</text>
  <rect x="168" y="353" width="224.8" height="14" rx="3" fill="#00b8d4"/>
  <text x="428" y="364" class="val ink3">$8.99 · avg 42k likes</text>
  <text x="158" y="386" text-anchor="end" class="label ink2">Ebony</text>
  <rect x="168" y="375" width="224.8" height="14" rx="3" fill="#00b8d4"/>
  <text x="428" y="386" class="val ink3">$8.99 · avg 20k likes</text>
  <text x="158" y="408" text-anchor="end" class="label ink2">Mature</text>
  <rect x="168" y="397" width="224.8" height="14" rx="3" fill="#00b8d4"/>
  <text x="428" y="408" class="val ink3">$8.99 · avg 11k likes</text>
  <text x="158" y="430" text-anchor="end" class="label ink2">Brunette</text>
  <rect x="168" y="419" width="222.0" height="14" rx="3" fill="#00b8d4"/>
  <text x="428" y="430" class="val ink3">$8.88 · avg 64k likes</text>
  <text x="158" y="452" text-anchor="end" class="label ink2">Redhead</text>
  <rect x="168" y="441" width="206.0" height="14" rx="3" fill="#00b8d4"/>
  <text x="428" y="452" class="val ink3">$8.24 · avg 34k likes</text>
  <text x="158" y="474" text-anchor="end" class="label ink2">Blonde</text>
  <rect x="168" y="463" width="200.0" height="14" rx="3" fill="#00b8d4"/>
  <text x="428" y="474" class="val ink3">$8.00 · avg 82k likes</text>
  <text x="158" y="496" text-anchor="end" class="label ink2">Desi</text>
  <rect x="168" y="485" width="200.0" height="14" rx="3" fill="#00b8d4"/>
  <text x="428" y="496" class="val ink3">$8.00 · avg 54k likes</text>
  <text x="158" y="518" text-anchor="end" class="label ink2">Emo</text>
  <rect x="168" y="507" width="200.0" height="14" rx="3" fill="#00b8d4"/>
  <text x="428" y="518" class="val ink3">$8.00 · avg 37k likes</text>
  <line x1="977.8" y1="104" x2="977.8" y2="526" stroke="#e8eef9" stroke-width="1" stroke-dasharray="4 4" opacity="0.5"/>
  <text x="977.75" y="96" text-anchor="middle" class="label ink2">$9.99 platform median</text>
  <text x="718" y="122" text-anchor="end" class="label ink2">Asian</text>
  <rect x="728" y="111" width="199.8" height="14" rx="3" fill="#00b8d4"/>
  <text x="988" y="122" class="val ink3">$7.99 · avg 65k likes</text>
  <text x="718" y="144" text-anchor="end" class="label ink2">Goth</text>
  <rect x="728" y="133" width="199.8" height="14" rx="3" fill="#00b8d4"/>
  <text x="988" y="144" class="val ink3">$7.99 · avg 32k likes</text>
  <text x="718" y="166" text-anchor="end" class="label ink2">Gay</text>
  <rect x="728" y="155" width="199.8" height="14" rx="3" fill="#00b8d4"/>
  <text x="988" y="166" class="val ink3">$7.99 · avg 18k likes</text>
  <text x="718" y="188" text-anchor="end" class="label ink2">Amateur</text>
  <rect x="728" y="177" width="192.3" height="14" rx="3" fill="#00b8d4"/>
  <text x="988" y="188" class="val ink3">$7.69 · avg 49k likes</text>
  <text x="718" y="210" text-anchor="end" class="label ink2">Lingerie</text>
  <rect x="728" y="199" width="187.5" height="14" rx="3" fill="#00b8d4"/>
  <text x="988" y="210" class="val ink3">$7.50 · avg 98k likes</text>
  <text x="718" y="232" text-anchor="end" class="label ink2">Cosplay</text>
  <rect x="728" y="221" width="187.5" height="14" rx="3" fill="#00b8d4"/>
  <text x="988" y="232" class="val ink3">$7.50 · avg 88k likes</text>
  <text x="718" y="254" text-anchor="end" class="label ink2">Trans</text>
  <rect x="728" y="243" width="187.5" height="14" rx="3" fill="#00b8d4"/>
  <text x="988" y="254" class="val ink3">$7.50 · avg 42k likes</text>
  <text x="718" y="276" text-anchor="end" class="label ink2">Fashion Model</text>
  <rect x="728" y="265" width="175.0" height="14" rx="3" fill="#00b8d4"/>
  <text x="988" y="276" class="val ink3">$7.00 · avg 119k likes</text>
  <text x="718" y="298" text-anchor="end" class="label ink2">Latina</text>
  <rect x="728" y="287" width="175.0" height="14" rx="3" fill="#00b8d4"/>
  <text x="988" y="298" class="val ink3">$7.00 · avg 61k likes</text>
  <text x="718" y="320" text-anchor="end" class="label ink2">BBW</text>
  <rect x="728" y="309" width="175.0" height="14" rx="3" fill="#00b8d4"/>
  <text x="988" y="320" class="val ink3">$7.00 · avg 33k likes</text>
  <text x="718" y="342" text-anchor="end" class="label ink2">Petite</text>
  <rect x="728" y="331" width="174.8" height="14" rx="3" fill="#00b8d4"/>
  <text x="988" y="342" class="val ink3">$6.99 · avg 85k likes</text>
  <text x="718" y="364" text-anchor="end" class="label ink2">Curvy</text>
  <rect x="728" y="353" width="162.5" height="14" rx="3" fill="#00b8d4"/>
  <text x="988" y="364" class="val ink3">$6.50 · avg 74k likes</text>
  <text x="718" y="386" text-anchor="end" class="label ink2">MILF</text>
  <rect x="728" y="375" width="162.3" height="14" rx="3" fill="#00b8d4"/>
  <text x="988" y="386" class="val ink3">$6.49 · avg 117k likes</text>
  <text x="718" y="408" text-anchor="end" class="label ink2">Girl Next Door</text>
  <rect x="728" y="397" width="150.5" height="14" rx="3" fill="#00b8d4"/>
  <text x="988" y="408" class="val ink3">$6.02 · avg 163k likes</text>
  <text x="718" y="430" text-anchor="end" class="label ink2">Big Tits</text>
  <rect x="728" y="419" width="150.0" height="14" rx="3" fill="#00b8d4"/>
  <text x="988" y="430" class="val ink3">$6.00 · avg 250k likes</text>
  <text x="718" y="452" text-anchor="end" class="label ink2">Tomboy</text>
  <rect x="728" y="441" width="150.0" height="14" rx="3" fill="#00b8d4"/>
  <text x="988" y="452" class="val ink3">$6.00 · avg 89k likes</text>
  <text x="718" y="474" text-anchor="end" class="label ink2">E Girl</text>
  <rect x="728" y="463" width="148.5" height="14" rx="3" fill="#00b8d4"/>
  <text x="988" y="474" class="val ink3">$5.94 · avg 254k likes</text>
  <text x="718" y="496" text-anchor="end" class="label ink2">Gamer Girl</text>
  <rect x="728" y="485" width="137.5" height="14" rx="3" fill="#00b8d4"/>
  <text x="988" y="496" class="val ink3">$5.50 · avg 274k likes</text>
  <text x="40" y="552" class="label11 ink3">Bar = median paid subscription price (USD) per niche, lighter = at or above the $9.99 platform median · text = average total likes per profile in the niche</text>

  <text x="40" y="582" class="ink3 footer">Source: onlyfansstatistics.com creator dataset · 100,200 public profiles, 1,057 niches, June 2026 · bestonlyfansreviews.com × onlyfansstatistics.com · CC BY-SA 4.0</text>
</svg>
